<svg width="1569" height="277" xmlns="http://www.w3.org/2000/svg" xmlns:xlink="http://www.w3.org/1999/xlink" xml:space="preserve" overflow="hidden"><defs><clipPath id="clip0"><rect x="1647" y="1045" width="1569" height="277"/></clipPath></defs><g clip-path="url(#clip0)" transform="translate(-1647 -1045)"><path d="M2927.95 1170.78C2921.24 1170.78 2915.73 1173.09 2911.42 1177.73 2907.12 1182.37 2904.5 1189.22 2903.58 1198.29L2952.41 1198.29C2951.75 1189.09 2949.27 1182.2 2944.96 1177.63 2940.65 1173.06 2934.98 1170.78 2927.95 1170.78ZM2403.95 1170.78C2397.24 1170.78 2391.73 1173.09 2387.42 1177.73 2383.12 1182.37 2380.5 1189.22 2379.58 1198.29L2428.41 1198.29C2427.75 1189.09 2425.27 1182.2 2420.96 1177.63 2416.65 1173.06 2410.98 1170.78 2403.95 1170.78ZM3121.48 1152.23C3128.45 1152.23 3134.71 1152.96 3140.27 1154.4 3145.82 1155.85 3150.46 1157.79 3154.17 1160.22 3157.89 1162.66 3160.72 1165.35 3162.66 1168.31 3164.6 1171.27 3165.56 1174.16 3165.56 1176.99 3165.56 1180.08 3164.53 1182.61 3162.46 1184.58 3160.39 1186.56 3157.44 1187.54 3153.63 1187.54 3150.87 1187.54 3148.52 1186.75 3146.58 1185.18 3144.64 1183.6 3142.42 1181.23 3139.92 1178.07 3137.88 1175.44 3135.48 1173.34 3132.72 1171.76 3129.96 1170.18 3126.21 1169.4 3121.48 1169.4 3116.61 1169.4 3112.57 1170.43 3109.34 1172.5 3106.12 1174.57 3104.51 1177.15 3104.51 1180.24 3104.51 1183.07 3105.7 1185.39 3108.06 1187.2 3110.43 1189.01 3113.62 1190.5 3117.63 1191.69 3121.64 1192.87 3127.16 1194.32 3134.2 1196.03 3142.55 1198.06 3149.37 1200.5 3154.67 1203.32 3159.96 1206.15 3163.97 1209.49 3166.7 1213.34 3169.43 1217.18 3170.79 1221.57 3170.79 1226.5 3170.79 1233.93 3168.98 1240.3 3165.37 1245.59 3161.75 1250.88 3156.41 1254.89 3149.34 1257.62 3142.27 1260.35 3133.67 1261.72 3123.55 1261.72 3113.88 1261.72 3105.6 1260.24 3098.69 1257.28 3091.79 1254.32 3086.69 1250.62 3083.4 1246.18 3080.12 1241.74 3078.47 1237.29 3078.47 1232.82 3078.47 1229.86 3079.52 1227.33 3081.63 1225.22 3083.73 1223.12 3086.4 1222.06 3089.62 1222.06 3092.45 1222.06 3094.62 1222.76 3096.13 1224.14 3097.64 1225.52 3099.09 1227.46 3100.47 1229.96 3103.23 1234.76 3106.53 1238.34 3110.38 1240.71 3114.23 1243.07 3119.47 1244.26 3126.11 1244.26 3131.5 1244.26 3135.93 1243.06 3139.38 1240.66 3142.83 1238.26 3144.56 1235.51 3144.56 1232.42 3144.56 1227.69 3142.76 1224.23 3139.18 1222.06 3135.6 1219.9 3129.7 1217.82 3121.48 1215.85 3112.2 1213.55 3104.66 1211.13 3098.84 1208.6 3093.02 1206.07 3088.37 1202.73 3084.88 1198.59 3081.4 1194.45 3079.66 1189.35 3079.66 1183.3 3079.66 1177.91 3081.27 1172.81 3084.49 1168.01 3087.71 1163.21 3092.46 1159.38 3098.74 1156.52 3105.02 1153.66 3112.6 1152.23 3121.48 1152.23ZM3014.02 1152.23C3018.49 1152.23 3021.71 1153.65 3023.68 1156.47 3025.65 1159.3 3026.74 1163.48 3026.94 1169 3030.16 1163.48 3033.46 1159.3 3036.85 1156.47 3040.24 1153.65 3044.76 1152.23 3050.41 1152.23 3056.07 1152.23 3061.56 1153.65 3066.88 1156.47 3072.21 1159.3 3074.87 1163.05 3074.87 1167.72 3074.87 1171.01 3073.74 1173.72 3071.47 1175.86 3069.2 1177.99 3066.75 1179.06 3064.12 1179.06 3063.13 1179.06 3060.75 1178.45 3056.97 1177.24 3053.19 1176.02 3049.85 1175.41 3046.96 1175.41 3043.01 1175.41 3039.79 1176.45 3037.29 1178.52 3034.79 1180.59 3032.85 1183.66 3031.47 1187.74 3030.09 1191.82 3029.14 1196.67 3028.61 1202.29 3028.09 1207.91 3027.82 1214.77 3027.82 1222.85L3027.82 1245.34C3027.82 1250.8 3026.54 1254.89 3023.98 1257.62 3021.41 1260.35 3018.16 1261.72 3014.21 1261.72 3010.33 1261.72 3007.14 1260.33 3004.65 1257.57 3002.15 1254.81 3000.9 1250.73 3000.9 1245.34L3000.9 1170.38C3000.9 1158.28 3005.27 1152.23 3014.02 1152.23ZM2928.83 1152.04C2939.35 1152.04 2948.38 1154.25 2955.91 1158.69 2963.44 1163.13 2969.07 1168.87 2972.82 1175.9 2976.57 1182.94 2978.45 1190.11 2978.45 1197.41 2978.45 1204.18 2976.51 1208.57 2972.63 1210.57 2968.75 1212.58 2963.29 1213.58 2956.25 1213.58L2903.58 1213.58C2903.65 1219.7 2904.88 1225.09 2907.28 1229.76 2909.68 1234.43 2912.87 1237.94 2916.85 1240.31 2920.83 1242.68 2925.22 1243.86 2930.02 1243.86 2933.24 1243.86 2936.18 1243.48 2938.84 1242.73 2941.51 1241.97 2944.09 1240.79 2946.59 1239.18 2949.09 1237.57 2951.39 1235.84 2953.49 1234 2955.6 1232.16 2958.32 1229.66 2961.68 1226.5 2963.06 1225.32 2965.03 1224.73 2967.6 1224.73 2970.36 1224.73 2972.59 1225.48 2974.3 1227 2976.01 1228.51 2976.87 1230.65 2976.87 1233.41 2976.87 1235.84 2975.91 1238.68 2974.01 1241.94 2972.1 1245.19 2969.22 1248.32 2965.38 1251.31 2961.53 1254.3 2956.7 1256.78 2950.88 1258.76 2945.06 1260.73 2938.37 1261.72 2930.81 1261.72 2913.51 1261.72 2900.06 1256.78 2890.46 1246.92 2880.86 1237.06 2876.06 1223.68 2876.06 1206.78 2876.06 1198.82 2877.25 1191.44 2879.61 1184.63 2881.98 1177.83 2885.43 1171.99 2889.97 1167.13 2894.51 1162.26 2900.1 1158.53 2906.74 1155.93 2913.38 1153.33 2920.74 1152.04 2928.83 1152.04ZM2404.83 1152.04C2415.35 1152.04 2424.38 1154.25 2431.91 1158.69 2439.44 1163.13 2445.07 1168.87 2448.82 1175.9 2452.57 1182.94 2454.45 1190.11 2454.45 1197.41 2454.45 1204.18 2452.51 1208.57 2448.63 1210.57 2444.75 1212.58 2439.29 1213.58 2432.25 1213.58L2379.58 1213.58C2379.65 1219.7 2380.88 1225.09 2383.28 1229.76 2385.68 1234.43 2388.87 1237.94 2392.85 1240.31 2396.83 1242.68 2401.22 1243.86 2406.02 1243.86 2409.24 1243.86 2412.18 1243.48 2414.84 1242.73 2417.51 1241.97 2420.09 1240.79 2422.59 1239.18 2425.09 1237.57 2427.39 1235.84 2429.49 1234 2431.6 1232.16 2434.32 1229.66 2437.68 1226.5 2439.06 1225.32 2441.03 1224.73 2443.6 1224.73 2446.36 1224.73 2448.59 1225.48 2450.3 1227 2452.01 1228.51 2452.87 1230.65 2452.87 1233.41 2452.87 1235.84 2451.91 1238.68 2450.01 1241.94 2448.1 1245.19 2445.22 1248.32 2441.38 1251.31 2437.53 1254.3 2432.7 1256.78 2426.88 1258.76 2421.06 1260.73 2414.37 1261.72 2406.81 1261.72 2389.51 1261.72 2376.06 1256.78 2366.46 1246.92 2356.86 1237.06 2352.06 1223.68 2352.06 1206.78 2352.06 1198.82 2353.25 1191.44 2355.61 1184.63 2357.98 1177.83 2361.43 1171.99 2365.97 1167.13 2370.51 1162.26 2376.1 1158.53 2382.74 1155.93 2389.38 1153.33 2396.74 1152.04 2404.83 1152.04ZM2593.59 1135.47C2587.73 1135.47 2582.33 1136.57 2577.36 1138.77 2572.4 1140.97 2568.12 1144.18 2564.54 1148.39 2560.96 1152.59 2558.13 1157.97 2556.06 1164.51 2553.99 1171.06 2552.95 1178.4 2552.95 1186.56 2552.95 1194.78 2553.99 1202.21 2556.06 1208.85 2558.13 1215.49 2561.05 1221 2564.84 1225.37 2568.62 1229.74 2572.96 1233.01 2577.85 1235.18 2582.75 1237.35 2588.13 1238.44 2593.98 1238.44 2601.48 1238.44 2608.37 1236.56 2614.64 1232.82 2620.92 1229.07 2625.92 1223.28 2629.64 1215.46 2633.35 1207.63 2635.21 1198 2635.21 1186.56 2635.21 1175.97 2633.5 1166.8 2630.08 1159.04 2626.66 1151.28 2621.78 1145.41 2615.43 1141.43 2609.09 1137.45 2601.81 1135.47 2593.59 1135.47ZM2704.95 1115.64C2708.37 1115.64 2711.46 1116.92 2714.22 1119.49 2716.06 1121.2 2717.23 1123.28 2717.72 1125.75 2718.21 1128.22 2718.46 1131.72 2718.46 1136.25L2718.46 1154.6 2728.32 1154.6C2732.14 1154.6 2735.05 1155.5 2737.05 1157.31 2739.06 1159.12 2740.06 1161.44 2740.06 1164.27 2740.06 1167.88 2738.63 1170.41 2735.77 1171.86 2732.91 1173.31 2728.82 1174.03 2723.49 1174.03L2718.46 1174.03 2718.46 1223.54C2718.46 1227.75 2718.61 1230.99 2718.9 1233.26 2719.2 1235.53 2719.99 1237.37 2721.27 1238.78 2722.55 1240.2 2724.64 1240.9 2727.53 1240.9 2729.11 1240.9 2731.25 1240.62 2733.95 1240.07 2736.64 1239.51 2738.75 1239.23 2740.26 1239.23 2742.43 1239.23 2744.38 1240.1 2746.13 1241.84 2747.87 1243.58 2748.74 1245.74 2748.74 1248.3 2748.74 1252.64 2746.37 1255.96 2741.64 1258.26 2736.9 1260.56 2730.1 1261.72 2721.22 1261.72 2712.8 1261.72 2706.43 1260.3 2702.09 1257.47 2697.75 1254.65 2694.9 1250.73 2693.55 1245.74 2692.21 1240.74 2691.53 1234.07 2691.53 1225.71L2691.53 1174.03 2687.98 1174.03C2684.1 1174.03 2681.14 1173.11 2679.11 1171.27 2677.07 1169.43 2676.05 1167.09 2676.05 1164.27 2676.05 1161.44 2677.12 1159.12 2679.25 1157.31 2681.39 1155.5 2684.5 1154.6 2688.57 1154.6L2691.53 1154.6 2691.53 1138.42C2691.53 1134.08 2691.65 1130.68 2691.88 1128.22 2692.11 1125.75 2692.75 1123.63 2693.8 1121.85 2694.85 1120.01 2696.37 1118.52 2698.34 1117.37 2700.31 1116.22 2702.51 1115.64 2704.95 1115.64ZM2114.76 1114.65 2207.87 1114.65C2212.93 1114.65 2216.69 1115.77 2219.16 1118.01 2221.63 1120.24 2222.86 1123.17 2222.86 1126.79 2222.86 1130.4 2221.61 1133.31 2219.11 1135.51 2216.61 1137.72 2212.86 1138.82 2207.87 1138.82L2175.91 1138.82 2175.91 1243.86C2175.91 1249.91 2174.56 1254.4 2171.87 1257.33 2169.17 1260.25 2165.69 1261.72 2161.41 1261.72 2157.07 1261.72 2153.54 1260.24 2150.81 1257.28 2148.08 1254.32 2146.71 1249.85 2146.71 1243.86L2146.71 1138.82 2114.76 1138.82C2109.76 1138.82 2106.04 1137.72 2103.61 1135.51 2101.18 1133.31 2099.96 1130.4 2099.96 1126.79 2099.96 1123.04 2101.23 1120.08 2103.76 1117.91 2106.29 1115.74 2109.96 1114.65 2114.76 1114.65ZM2771.82 1112.19C2776.09 1112.19 2779.43 1113.57 2781.83 1116.33 2784.23 1119.09 2785.43 1123.17 2785.43 1128.56L2785.43 1168.51C2788.85 1164.56 2792.19 1161.44 2795.44 1159.14 2798.7 1156.84 2802.3 1155.11 2806.24 1153.96 2810.19 1152.81 2814.43 1152.23 2818.96 1152.23 2825.8 1152.23 2831.87 1153.68 2837.16 1156.57 2842.46 1159.47 2846.61 1163.67 2849.64 1169.2 2851.55 1172.42 2852.83 1176.02 2853.49 1180 2854.14 1183.98 2854.47 1188.56 2854.47 1193.76L2854.47 1245.34C2854.47 1250.73 2853.24 1254.81 2850.77 1257.57 2848.31 1260.33 2845.04 1261.72 2840.96 1261.72 2832.08 1261.72 2827.64 1256.26 2827.64 1245.34L2827.64 1199.87C2827.64 1191.26 2826.36 1184.63 2823.8 1180 2821.23 1175.36 2816.37 1173.04 2809.2 1173.04 2804.4 1173.04 2800.08 1174.41 2796.23 1177.14 2792.38 1179.87 2789.51 1183.6 2787.6 1188.33 2786.15 1192.34 2785.43 1199.48 2785.43 1209.74L2785.43 1245.34C2785.43 1250.67 2784.23 1254.73 2781.83 1257.52 2779.43 1260.32 2776.09 1261.72 2771.82 1261.72 2762.94 1261.72 2758.5 1256.26 2758.5 1245.34L2758.5 1128.56C2758.5 1123.1 2759.67 1119.01 2762 1116.28 2764.34 1113.55 2767.61 1112.19 2771.82 1112.19ZM2593.59 1112.19C2608.58 1112.19 2621.45 1115.23 2632.2 1121.31 2642.95 1127.39 2651.09 1136.04 2656.61 1147.25 2662.14 1158.46 2664.9 1171.63 2664.9 1186.75 2664.9 1197.93 2663.39 1208.09 2660.36 1217.23 2657.34 1226.37 2652.8 1234.3 2646.75 1241 2640.7 1247.71 2633.27 1252.84 2624.46 1256.39 2615.65 1259.94 2605.55 1261.72 2594.18 1261.72 2582.87 1261.72 2572.74 1259.89 2563.8 1256.24 2554.86 1252.59 2547.39 1247.45 2541.41 1240.81 2535.43 1234.16 2530.91 1226.17 2527.85 1216.84 2524.79 1207.5 2523.26 1197.41 2523.26 1186.56 2523.26 1175.44 2524.86 1165.25 2528.05 1155.98 2531.23 1146.71 2535.85 1138.82 2541.9 1132.31 2547.95 1125.8 2555.32 1120.82 2564 1117.37 2572.68 1113.91 2582.54 1112.19 2593.59 1112.19ZM2247.82 1112.19C2252.09 1112.19 2255.43 1113.57 2257.83 1116.33 2260.23 1119.09 2261.43 1123.17 2261.43 1128.56L2261.43 1168.51C2264.85 1164.56 2268.19 1161.44 2271.44 1159.14 2274.7 1156.84 2278.3 1155.11 2282.24 1153.96 2286.19 1152.81 2290.43 1152.23 2294.96 1152.23 2301.8 1152.23 2307.87 1153.68 2313.16 1156.57 2318.46 1159.47 2322.61 1163.67 2325.64 1169.2 2327.55 1172.42 2328.83 1176.02 2329.49 1180 2330.14 1183.98 2330.47 1188.56 2330.47 1193.76L2330.47 1245.34C2330.47 1250.73 2329.24 1254.81 2326.77 1257.57 2324.31 1260.33 2321.04 1261.72 2316.96 1261.72 2308.08 1261.72 2303.64 1256.26 2303.64 1245.34L2303.64 1199.87C2303.64 1191.26 2302.36 1184.63 2299.8 1180 2297.23 1175.36 2292.37 1173.04 2285.2 1173.04 2280.4 1173.04 2276.08 1174.41 2272.23 1177.14 2268.38 1179.87 2265.51 1183.6 2263.6 1188.33 2262.15 1192.34 2261.43 1199.48 2261.43 1209.74L2261.43 1245.34C2261.43 1250.67 2260.23 1254.73 2257.83 1257.52 2255.43 1260.32 2252.09 1261.72 2247.82 1261.72 2238.94 1261.72 2234.5 1256.26 2234.5 1245.34L2234.5 1128.56C2234.5 1123.1 2235.67 1119.01 2238 1116.28 2240.34 1113.55 2243.61 1112.19 2247.82 1112.19Z" stroke="#FFFFFF" stroke-width="2" stroke-linejoin="round" stroke-miterlimit="10" fill="#003C65" fill-rule="evenodd"/><text fill="#000000" fill-opacity="0" font-family="Arial,Arial_MSFontService,sans-serif" font-size="149.527" x="2099.96" y="1243.02">The Others</text><path d="M2081.91 1167.17C2077.69 1167.18 2073.47 1167.41 2069.3 1167.87L2045.41 1159C2045.58 1163.09 2046.82 1167.13 2049.06 1170.9 2034.79 1173.47 2021.35 1176.5 2012.23 1176.5L1989 1167.17C1989.64 1172.74 1991.31 1178.23 1993.98 1183.5 1991.31 1188.77 1989.64 1194.26 1989 1199.83L2012.23 1190.5C2021.35 1190.5 2034.79 1193.53 2049.06 1196.1 2046.82 1199.88 2045.58 1203.91 2045.41 1208L2069.3 1199.13C2073.47 1199.59 2077.69 1199.82 2081.91 1199.83 2102.98 1199.83 2135 1188.75 2135 1183.5 2135 1178.25 2102.98 1167.17 2081.91 1167.17ZM2110.09 1181.17C2108.26 1181.17 2106.77 1180.12 2106.77 1178.83 2106.77 1177.55 2108.26 1176.5 2110.09 1176.5 2111.92 1176.5 2113.41 1177.55 2113.41 1178.83 2113.41 1180.12 2111.94 1181.16 2110.11 1181.17Z" fill="#99D5FF" fill-rule="evenodd"/><path d="M1989 1153.93C1955.71 1125.27 1905.75 1108.63 1852.99 1108.63 1850.6 1108.63 1848.26 1108.75 1845.9 1108.82L1773.03 1078C1773.6 1091.89 1776.99 1105.66 1783.1 1118.88 1755.39 1127.36 1731.25 1140.68 1712.98 1157.56L1647 1127.35C1647 1149.41 1662.02 1183.5 1662.02 1183.5 1662.02 1183.5 1647 1217.59 1647 1239.65L1712.98 1209.44C1731.25 1226.32 1755.39 1239.64 1783.1 1248.12 1776.98 1261.34 1773.59 1275.11 1773.03 1289L1845.9 1258.18C1848.26 1258.25 1850.61 1258.37 1852.99 1258.37 1902.87 1258.37 1950.38 1243.46 1983.6 1217.41L1922.8 1185.29ZM1915.14 1158.26C1910.91 1158.26 1907.48 1155.86 1907.48 1152.89 1907.48 1149.93 1910.91 1147.53 1915.14 1147.53 1919.37 1147.53 1922.8 1149.93 1922.8 1152.89 1922.8 1155.86 1919.37 1158.26 1915.14 1158.26Z" fill="#0079CB" fill-rule="evenodd"/></g></svg>